<?xml version="1.0" encoding="UTF-8" standalone="no"?>
<svg
   xmlns:osb="http://www.openswatchbook.org/uri/2009/osb"
   xmlns:dc="http://purl.org/dc/elements/1.1/"
   xmlns:cc="http://creativecommons.org/ns#"
   xmlns:rdf="http://www.w3.org/1999/02/22-rdf-syntax-ns#"
   xmlns:svg="http://www.w3.org/2000/svg"
   xmlns="http://www.w3.org/2000/svg"
   xmlns:xlink="http://www.w3.org/1999/xlink"
   xmlns:sodipodi="http://sodipodi.sourceforge.net/DTD/sodipodi-0.dtd"
   xmlns:inkscape="http://www.inkscape.org/namespaces/inkscape"
   width="70.288864mm"
   height="78.194412mm"
   viewBox="0 0 70.288862 78.194412"
   version="1.1"
   id="svg126"
   inkscape:version="1.0.2 (e86c870879, 2021-01-15, custom)"
   sodipodi:docname="logo.svg">
  <defs
     id="defs120">
    <linearGradient
       inkscape:collect="always"
       id="linearGradient976">
      <stop
         style="stop-color:#13684b;stop-opacity:1;"
         offset="0"
         id="stop972" />
      <stop
         style="stop-color:#13684b;stop-opacity:0;"
         offset="1"
         id="stop974" />
    </linearGradient>
    <linearGradient
       id="linearGradient2995"
       osb:paint="solid">
      <stop
         style="stop-color:#232239;stop-opacity:1;"
         offset="0"
         id="stop2993" />
    </linearGradient>
    <linearGradient
       inkscape:collect="always"
       xlink:href="#linearGradient976"
       id="linearGradient978"
       x1="51.263683"
       y1="97.178802"
       x2="103.53867"
       y2="18.932795"
       gradientUnits="userSpaceOnUse" />
    <filter
       inkscape:collect="always"
       style="color-interpolation-filters:sRGB"
       id="filter980"
       x="-0.12235414"
       width="1.2447083"
       y="-0.10997307"
       height="1.2199461">
      <feGaussianBlur
         inkscape:collect="always"
         stdDeviation="2.4980641"
         id="feGaussianBlur982" />
    </filter>
    <filter
       inkscape:collect="always"
       style="color-interpolation-filters:sRGB"
       id="filter906"
       x="-0.0019963905"
       width="1.0039928"
       y="-0.0085820472"
       height="1.0171641">
      <feGaussianBlur
         inkscape:collect="always"
         stdDeviation="0.033273184"
         id="feGaussianBlur908" />
    </filter>
    <filter
       inkscape:collect="always"
       style="color-interpolation-filters:sRGB"
       id="filter910"
       x="-0.0038317249"
       width="1.0076634"
       y="-0.0020745597"
       height="1.0041491">
      <feGaussianBlur
         inkscape:collect="always"
         stdDeviation="0.033273184"
         id="feGaussianBlur912" />
    </filter>
    <filter
       inkscape:collect="always"
       style="color-interpolation-filters:sRGB"
       id="filter914"
       x="-0.0022815892"
       width="1.0045632"
       y="-0.0019181831"
       height="1.0038364">
      <feGaussianBlur
         inkscape:collect="always"
         stdDeviation="0.033273184"
         id="feGaussianBlur916" />
    </filter>
    <filter
       inkscape:collect="always"
       style="color-interpolation-filters:sRGB"
       id="filter918"
       x="-0.0022712494"
       width="1.0045425"
       y="-0.0019181831"
       height="1.0038364">
      <feGaussianBlur
         inkscape:collect="always"
         stdDeviation="0.033273184"
         id="feGaussianBlur920" />
    </filter>
    <filter
       inkscape:collect="always"
       style="color-interpolation-filters:sRGB"
       id="filter922"
       x="-0.0037740127"
       width="1.007548"
       y="-0.0020745597"
       height="1.0041491">
      <feGaussianBlur
         inkscape:collect="always"
         stdDeviation="0.033273184"
         id="feGaussianBlur924" />
    </filter>
  </defs>
  <sodipodi:namedview
     id="base"
     pagecolor="#ffffff"
     bordercolor="#666666"
     borderopacity="1.0"
     inkscape:pageopacity="0.0"
     inkscape:pageshadow="2"
     inkscape:zoom="1.979899"
     inkscape:cx="67.534143"
     inkscape:cy="172.06752"
     inkscape:document-units="mm"
     inkscape:current-layer="layer2"
     inkscape:document-rotation="0"
     showgrid="false"
     inkscape:window-width="1866"
     inkscape:window-height="1004"
     inkscape:window-x="24"
     inkscape:window-y="24"
     inkscape:window-maximized="0">
    <inkscape:grid
       type="xygrid"
       id="grid218"
       originx="-20.820374"
       originy="-13.162711" />
  </sodipodi:namedview>
  <metadata
     id="metadata123">
    <rdf:RDF>
      <cc:Work
         rdf:about="">
        <dc:format>image/svg+xml</dc:format>
        <dc:type
           rdf:resource="http://purl.org/dc/dcmitype/StillImage" />
        <dc:title />
      </cc:Work>
    </rdf:RDF>
  </metadata>
  <g
     inkscape:groupmode="layer"
     id="layer2"
     inkscape:label="bg"
     style="display:inline"
     transform="translate(-20.820374,-13.162711)">
    <path
       style="fill:#ffffff;stroke:#000000;stroke-width:0.264583px;stroke-linecap:butt;stroke-linejoin:miter;stroke-opacity:1"
       d="M 55.9648,13.351146 90.964809,52.739138 75.96481,91.231954 H 35.964801 l -15,-38.492816 z"
       id="path862"
       inkscape:export-xdpi="665.11914"
       inkscape:export-ydpi="665.11914" />
  </g>
  <g
     inkscape:label="diamencik"
     inkscape:groupmode="layer"
     id="layer1"
     style="display:inline"
     transform="translate(-20.820374,-13.162711)">
    <path
       style="fill:none;stroke:#000000;stroke-width:0.175233px;stroke-linecap:butt;stroke-linejoin:miter;stroke-opacity:1"
       d="m 56.124148,27.410427 -24.5,27.571596 10.5,26.94497 h 28.00001 l 10.5,-26.94497 z"
       id="path10"
       sodipodi:nodetypes="cccccc" />
    <path
       style="fill:none;stroke:#000000;stroke-width:0.250333px;stroke-linecap:butt;stroke-linejoin:miter;stroke-opacity:1"
       d="m 55.964801,13.351146 -35,39.387994 15,38.492816 h 40.00001 l 15,-38.492816 z"
       id="path10-9"
       sodipodi:nodetypes="cccccc" />
    <path
       style="fill:#0f7955;fill-opacity:0.714528;stroke:#000000;stroke-width:0.45;stroke-linecap:butt;stroke-linejoin:miter;stroke-miterlimit:4;stroke-dasharray:none;stroke-opacity:1;filter:url(#filter918)"
       d="M 20.964801,52.73914 31.624148,54.982023 56.124146,27.410427 55.964801,13.351146 Z"
       id="path208" />
    <path
       style="fill:#0f7955;fill-opacity:0.714528;stroke:#000000;stroke-width:0.45;stroke-linecap:butt;stroke-linejoin:miter;stroke-miterlimit:4;stroke-dasharray:none;stroke-opacity:1;filter:url(#filter914)"
       d="M 55.964801,13.351146 90.96481,52.73914 80.624158,54.982023 56.124146,27.410427 Z"
       id="path210" />
    <path
       style="fill:#0f7955;fill-opacity:0.714528;stroke:#000000;stroke-width:0.45;stroke-linecap:butt;stroke-linejoin:miter;stroke-miterlimit:4;stroke-dasharray:none;stroke-opacity:1;filter:url(#filter910)"
       d="m 90.96481,52.73914 -14.999999,38.492816 -5.840653,-9.304964 10.5,-26.944969 z"
       id="path212" />
    <path
       style="fill:#0f7955;fill-opacity:0.714528;stroke:#000000;stroke-width:0.45;stroke-linecap:butt;stroke-linejoin:miter;stroke-miterlimit:4;stroke-dasharray:none;stroke-opacity:1;filter:url(#filter906)"
       d="m 75.964811,91.231956 h -40.00001 l 6.159347,-9.304964 h 28.00001 z"
       id="path214" />
    <path
       style="fill:#0f7955;fill-opacity:0.714528;stroke:#000000;stroke-width:0.45;stroke-linecap:butt;stroke-linejoin:miter;stroke-miterlimit:4;stroke-dasharray:none;stroke-opacity:1;filter:url(#filter922)"
       d="m 35.964801,91.231956 -15,-38.492816 10.659347,2.242883 10.5,26.944969 z"
       id="path216" />
    <path
       style="opacity:1;mix-blend-mode:normal;fill:url(#linearGradient978);fill-opacity:1;fill-rule:nonzero;stroke:#000000;stroke-width:0.25;stroke-linecap:butt;stroke-linejoin:miter;stroke-miterlimit:4;stroke-dasharray:none;stroke-opacity:1;filter:url(#filter980)"
       d="m 31.624148,54.982023 10.5,26.944969 h 28.00001 l 10.5,-26.944969 -24.500012,-27.571596 z"
       id="path220" />
  </g>
  <g
     inkscape:groupmode="layer"
     id="layer3"
     inkscape:label="napis"
     style="display:inline"
     transform="translate(-20.820374,-13.162711)">
    <g
       aria-label="F"
       transform="scale(0.96153393,1.0400049)"
       id="text204"
       style="font-style:normal;font-variant:normal;font-weight:normal;font-stretch:normal;font-size:39.1596px;line-height:1.25;font-family:'Linux Libertine Initials';-inkscape-font-specification:'Linux Libertine Initials';fill:#004f34;fill-opacity:0.72156864;stroke:#000000;stroke-width:0.3;stroke-miterlimit:4;stroke-dasharray:none;stroke-opacity:1">
      <path
         d="m 56.856799,64.977434 q 0.03824,1.185495 0.286814,1.91209 0.248571,0.707473 0.879561,1.051649 0.63099,0.344176 1.242858,0.439781 0.63099,0.0956 1.854728,0.152967 0.43978,0.478022 0,0.898682 -0.707474,0 -2.657805,-0.0956 -1.931211,-0.09561 -3.212311,-0.09561 -1.089891,0 -2.715168,0.07648 -1.606155,0.0956 -2.409233,0.114725 -0.172088,-0.172088 -0.191209,-0.439781 0,-0.286813 0.191209,-0.458901 1.166375,-0.05736 1.682639,-0.133846 0.535385,-0.09561 0.975166,-0.478023 0.439781,-0.382418 0.573627,-1.032528 0.133846,-0.650111 0.172088,-1.91209 0.07648,-2.581321 0.07648,-8.29847 0,-5.870116 -0.07648,-8.432316 -0.03824,-1.261979 -0.172088,-1.91209 -0.133846,-0.65011 -0.573627,-1.032528 -0.439781,-0.382418 -0.975166,-0.458902 -0.516264,-0.0956 -1.682639,-0.152967 -0.172088,-0.172088 -0.191209,-0.439781 0,-0.286813 0.191209,-0.458901 l 5.047917,0.191209 h 9.981109 q 0.42066,0 0.707473,-0.03824 0.305935,-0.03824 0.669232,-0.114726 0.363297,-0.0956 0.535385,-0.114725 0.152967,0 0.172088,0.114725 0.305934,1.204617 0.86044,5.793633 -0.516264,0.248571 -0.898682,0.191209 -0.344176,-1.089892 -0.516264,-1.567914 -0.172088,-0.478023 -0.573627,-1.242858 -0.382418,-0.764836 -0.783957,-1.089892 -0.382418,-0.325055 -1.051649,-0.592747 -0.650111,-0.286814 -1.510551,-0.286814 h -4.493411 q -0.669232,0 -1.032529,0.497143 -0.363297,0.478023 -0.382418,1.223738 -0.05736,1.434067 -0.07648,3.671212 -0.01912,2.237145 -0.01912,3.747696 l 0.01912,1.510551 4.149235,-0.03824 q 1.2811,0 1.950331,-0.07648 0.669232,-0.0956 1.032529,-0.439781 0.363297,-0.363297 0.43978,-0.764836 0.0956,-0.401539 0.133847,-1.338463 0.172088,-0.172088 0.43978,-0.172088 0.286814,0 0.458902,0.172088 -0.01912,0.458902 -0.114726,1.548793 -0.07648,1.089891 -0.07648,1.816486 0,0.630989 0.07648,1.529671 0.09561,0.879562 0.114726,1.529672 -0.172088,0.172088 -0.458902,0.172088 -0.267692,0 -0.43978,-0.172088 -0.05736,-0.803078 -0.152968,-1.166375 -0.07648,-0.382418 -0.420659,-0.783956 -0.325056,-0.401539 -1.05165,-0.535386 -0.707473,-0.133846 -1.93121,-0.133846 l -4.149235,-0.03824 q -0.03824,4.914071 0.07648,8.183745 z m 1.2811,-0.439781 q 0.05736,1.759123 0.726595,2.218024 0.688352,0.439781 2.696046,0.573627 l 0.07648,0.01912 0.05736,0.05736 q 1.567913,1.606155 -0.03824,3.212311 l -0.03824,0.03824 h -0.07648 q -0.86044,-0.01912 -3.499124,-0.114726 -2.638684,-0.0956 -2.829893,-0.0956 -0.172088,0 -2.409233,0.0956 -2.237145,0.09561 -3.116706,0.114726 H 49.6291 l -0.05736,-0.03824 Q 47.965585,69.011939 49.5335,67.405784 l 0.05736,-0.05736 0.07648,-0.01912 q 1.816485,-0.114725 2.198903,-0.516264 0.382418,-0.401539 0.439781,-2.275387 0.07648,-2.084178 0.07648,-7.858689 0,-6.195171 -0.07648,-7.992535 -0.03824,-1.070771 -0.114726,-1.567914 -0.07648,-0.516264 -0.458901,-0.803078 -0.363297,-0.286813 -0.707474,-0.325055 -0.344176,-0.05736 -1.338462,-0.0956 l -0.09561,-0.01912 -0.03824,-0.03824 q -1.606155,-1.606156 0.01912,-3.231432 l 0.05736,-0.03824 h 0.05736 q 1.089891,0.01912 3.154948,0.114726 2.084178,0.0956 2.35187,0.0956 h 9.961988 q 0.478023,0 0.994287,-0.133846 0.516264,-0.152967 0.917803,-0.152967 1.109012,0 1.319342,0.898682 0.458901,2.275387 0.994287,6.845281 l 0.01912,0.114726 -0.0956,0.03824 q -1.529672,0.726594 -2.944618,0.535385 h -0.09561 l -0.01912,-0.0956 q -0.05736,-0.152967 -0.152967,-0.478022 -0.325055,-1.032529 -0.497143,-1.49143 -0.172088,-0.478023 -0.458902,-1.109012 -0.286813,-0.63099 -0.592748,-0.860441 -0.286813,-0.248572 -0.726594,-0.43978 -0.43978,-0.191209 -1.051649,-0.191209 h -4.110993 q -0.573627,0 -0.592748,0.554506 -0.0956,2.638684 -0.07648,7.66748 l 2.944619,-0.03824 q 0.898682,-0.01912 1.338462,-0.05736 0.458902,-0.05736 0.688353,-0.172088 0.248571,-0.133846 0.267692,-0.344176 0.03824,-0.21033 0.03824,-0.535385 0.01912,-0.325055 0.03824,-0.783957 v -0.05736 l 0.03824,-0.03824 q 1.587034,-1.587035 3.231432,0.03824 l 0.05736,0.05736 v 0.05736 q -0.01912,0.688352 -0.114725,1.93121 -0.09561,1.223738 -0.09561,1.854728 0,0.630989 0.07648,1.72088 0.0956,1.089892 0.114725,1.759123 l 0.01912,0.07648 -0.05736,0.03824 q -1.625277,1.625277 -3.212311,0.03824 l -0.05736,-0.03824 v -0.05736 Q 63.185817,58.648416 62.84164,58.361603 62.497464,58.055669 60.929551,58.036548 l -2.944619,-0.03824 q -0.01912,2.065057 0.152967,6.539347 z m -0.305934,0.01912 q -0.172088,-4.68462 -0.172088,-6.711435 v -0.152967 l 3.269674,0.03824 q 1.625276,0.01912 2.084178,0.401539 0.478022,0.382418 0.592747,1.720881 1.319342,1.2811 2.696047,-0.03824 -0.01912,-0.592748 -0.114725,-1.663518 -0.09561,-1.089891 -0.09561,-1.740002 0,-0.669231 0.09561,-1.873848 0.0956,-1.223737 0.114725,-1.873848 -1.357584,-1.319342 -2.696047,-0.01912 -0.01912,0.172089 -0.03824,0.63099 -0.01912,0.458902 -0.05736,0.573627 -0.01912,0.0956 -0.172088,0.363297 -0.133847,0.248572 -0.42066,0.305935 -0.267693,0.05736 -0.764836,0.152967 -0.478022,0.07648 -1.223737,0.07648 l -3.269674,0.03824 v -0.152967 q -0.01912,-5.200884 0.0956,-7.839568 0.01912,-0.478023 0.305934,-0.669232 0.305934,-0.191209 0.592748,-0.191209 h 4.110993 q 0.669231,0 1.166375,0.229451 0.516264,0.21033 0.822198,0.497143 0.325056,0.267693 0.63099,0.936924 0.325055,0.650111 0.497143,1.128133 0.172088,0.478023 0.497144,1.510551 0.07648,0.267693 0.133846,0.401539 1.242858,0.133846 2.543079,-0.478022 -0.573627,-4.608137 -0.975165,-6.711435 -0.133847,-0.63099 -1.013408,-0.63099 -0.344176,0 -0.860441,0.133846 -0.497143,0.133846 -1.051649,0.133846 H 55.19328 q -0.305934,0 -2.332749,-0.07648 -2.026816,-0.0956 -3.116707,-0.133846 -1.300221,1.338462 -0.01912,2.696046 0.956045,0.05736 1.395826,0.152967 0.439781,0.07648 0.822199,0.401539 0.382417,0.305935 0.497143,0.898682 0.133846,0.573627 0.191209,1.644398 0.07648,1.797364 0.07648,8.011656 0,5.793632 -0.07648,7.87781 -0.07648,1.931211 -0.573627,2.447475 -0.478023,0.516264 -2.33275,0.650111 -1.2811,1.338462 0.01912,2.696046 0.84132,-0.01912 3.078465,-0.114725 2.237145,-0.09561 2.409233,-0.09561 0.229451,0 2.810772,0.09561 2.600442,0.0956 3.441762,0.114725 1.300221,-1.357584 0.01912,-2.696046 -2.026816,-0.133847 -2.810772,-0.707474 -0.783957,-0.573627 -0.860441,-2.390112 z"
         style="font-style:normal;font-variant:normal;font-weight:normal;font-stretch:normal;font-family:'Linux Libertine Initials';-inkscape-font-specification:'Linux Libertine Initials';fill:#004f34;fill-opacity:0.72156864;stroke:#000000;stroke-width:0.3;stroke-miterlimit:4;stroke-dasharray:none;stroke-opacity:1"
         id="path2448" />
    </g>
    <circle
       id="path890"
       style="fill:#147e5a;stroke:#000000;stroke-width:0.264583"
       cx="195.72762"
       cy="66.449913"
       r="0.0786663" />
  </g>
</svg>
